<?xml version="1.0" standalone="no"?>
<!DOCTYPE svg PUBLIC "-//W3C//DTD SVG 20010904//EN"
 "http://www.w3.org/TR/2001/REC-SVG-20010904/DTD/svg10.dtd">
<svg version="1.0" xmlns="http://www.w3.org/2000/svg"
 width="608.000000pt" height="608.000000pt" viewBox="0 0 608.000000 608.000000"
 preserveAspectRatio="xMidYMid meet">
<metadata>
Created by potrace 1.14, written by Peter Selinger 2001-2017
</metadata>
<g transform="translate(0.000000,608.000000) scale(0.100000,-0.100000)"
fill="#000000" stroke="none">
<path d="M1210 6049 c-117 -22 -284 -76 -375 -121 -370 -185 -618 -471 -746
-860 -78 -236 -73 -111 -77 -1928 -3 -1645 0 -1834 33 -1995 106 -509 461
-911 955 -1078 211 -72 73 -68 2100 -64 l1825 3 90 25 c361 102 619 280 827
570 97 135 173 302 218 479 20 77 20 107 20 1954 l0 1875 -36 118 c-152 502
-526 870 -1009 994 -195 50 -132 49 -1985 48 -1674 -1 -1739 -2 -1840 -20z
m3630 -283 c220 -36 413 -130 593 -290 196 -174 321 -407 363 -675 13 -83 14
-324 12 -1821 l-3 -1725 -27 -100 c-113 -420 -368 -692 -770 -820 -177 -57
-112 -55 -1943 -55 -1833 0 -1765 -2 -1945 55 -414 131 -727 488 -795 906 -23
142 -23 3426 0 3568 41 248 152 450 358 648 174 168 372 270 597 308 115 20
3440 21 3560 1z"/>
<path d="M2052 4623 c3 -37 4 -38 53 -46 28 -5 60 -11 72 -13 37 -7 92 -62
103 -104 7 -26 10 -285 8 -764 -3 -714 -3 -725 -24 -752 -34 -46 -66 -63 -139
-77 l-70 -12 -3 -38 -3 -37 413 2 413 3 3 29 c5 38 -6 47 -69 53 -30 3 -66 11
-80 19 -42 21 -77 70 -84 117 -3 23 -5 182 -3 352 l3 310 415 0 415 0 3 -320
c2 -222 -1 -333 -9 -363 -20 -74 -67 -103 -204 -124 -16 -3 -20 -11 -20 -38
l0 -35 410 0 410 0 0 35 0 35 -65 10 c-99 17 -139 47 -159 120 -15 53 -15
1424 -1 1477 11 40 67 95 103 102 12 2 45 8 72 13 49 8 50 9 53 46 l3 37 -416
0 -416 0 3 -37 c3 -37 4 -38 53 -46 28 -5 61 -11 74 -13 36 -8 88 -65 100
-111 7 -27 10 -149 9 -355 l-3 -313 -417 -3 -418 -2 0 322 c0 189 4 338 10
360 11 40 67 95 103 102 12 2 45 8 72 13 49 8 50 9 50 43 l0 35 -413 3 -413 2
3 -37z"/>
<path d="M2416 2476 c-88 -33 -141 -126 -117 -207 18 -58 66 -99 169 -144 127
-55 162 -85 162 -136 0 -52 -13 -75 -52 -95 -62 -32 -196 -10 -237 39 -18 23
-33 21 -59 -6 l-22 -23 28 -27 c50 -48 118 -72 208 -72 72 0 86 3 130 30 85
52 115 144 75 231 -23 51 -57 75 -174 125 -107 46 -147 82 -147 133 0 84 126
117 229 60 l44 -24 24 22 c20 19 21 23 8 38 -50 55 -192 85 -269 56z"/>
<path d="M4738 2476 c-128 -34 -204 -142 -216 -302 -14 -211 97 -357 283 -371
66 -5 150 19 199 58 l27 21 -3 136 -3 137 -107 3 -108 3 0 -36 0 -35 70 0 70
0 0 -89 0 -89 -37 -17 c-41 -20 -123 -22 -168 -5 -40 15 -82 56 -108 105 -18
34 -22 57 -22 150 0 99 2 114 25 154 14 24 41 57 60 72 63 51 176 54 242 8
l31 -22 18 22 c25 31 24 36 -12 62 -65 46 -153 59 -241 35z"/>
<path d="M1095 2467 c-3 -7 -4 -156 -3 -332 l3 -320 43 -3 42 -3 0 160 0 161
155 0 155 0 0 -161 0 -160 43 3 42 3 0 330 0 330 -42 3 -43 3 0 -140 0 -141
-155 0 -155 0 0 140 0 140 -40 0 c-23 0 -43 -5 -45 -13z"/>
<path d="M1786 2157 c-60 -177 -111 -328 -114 -335 -3 -10 6 -12 39 -10 l44 3
31 95 30 95 124 0 125 0 30 -97 30 -98 42 0 c24 0 43 4 43 8 0 7 -107 326
-195 585 l-27 77 -46 0 -47 0 -109 -323z m205 88 c25 -85 44 -157 41 -160 -7
-6 -177 -7 -184 0 -5 6 85 315 92 315 3 0 26 -70 51 -155z"/>
<path d="M2850 2145 l0 -336 43 3 42 3 3 158 3 157 149 0 149 0 3 -157 3 -158
43 -3 42 -3 0 336 0 336 -42 -3 -43 -3 -3 -137 -3 -138 -149 0 -149 0 -3 138
-3 137 -42 3 -43 3 0 -336z"/>
<path d="M3450 2445 l0 -35 100 0 100 0 0 -301 0 -300 43 3 42 3 3 298 2 297
100 0 100 0 0 35 0 35 -245 0 -245 0 0 -35z"/>
<path d="M4045 2158 c-60 -178 -110 -329 -113 -336 -3 -10 6 -12 39 -10 l43 3
31 98 30 97 125 -2 124 -3 30 -97 29 -98 44 0 c23 0 43 3 43 7 0 4 -50 155
-111 335 l-112 328 -47 0 -48 0 -107 -322z m206 81 c25 -82 44 -151 41 -154
-3 -3 -48 -5 -100 -5 -71 0 -93 3 -89 13 2 6 24 78 48 159 24 81 46 145 49
142 2 -3 26 -73 51 -155z"/>
</g>
</svg>
